<?xml version="1.0" encoding="UTF-8"?><svg id="Layer_2" xmlns="http://www.w3.org/2000/svg" viewBox="0 0 19.22 34"><defs><style>.cls-1{fill:none;}.cls-2{fill:#6b7280;}</style></defs><g id="Layer_1-2"><path class="cls-1" d="M10.29,5.55c-2.06,0-4,.87-5.46,2.45-2.08,2.25-3.04,5.68-2.72,9.66.6,7.43,6.64,12.41,9.21,14.21.18.12.44.09.56-.06,1.38-1.72,4.66-6.61,5.23-14.74.3-4.28-.54-7.72-2.36-9.68-1.14-1.23-2.64-1.85-4.46-1.85Z"/><path class="cls-2" d="M16.24,6c-1.22-1.31-2.78-2.11-4.57-2.39V1.02c0-.57-.46-1.02-1.02-1.02s-1.02.46-1.02,1.02v2.51c-2.39.17-4.61,1.24-6.3,3.07C.85,9.29-.3,13.27.07,17.83c.67,8.3,7.27,13.76,10.08,15.72.43.3.93.45,1.42.45.72,0,1.43-.31,1.91-.91,1.86-2.33,5.08-7.48,5.67-15.87.35-4.93-.66-8.81-2.91-11.22ZM17.11,17.07c-.57,8.13-3.85,13.01-5.23,14.74-.13.16-.38.19-.56.06-2.57-1.8-8.61-6.78-9.21-14.21-.32-3.98.64-7.41,2.72-9.66,1.46-1.58,3.4-2.45,5.46-2.45,1.82,0,3.32.62,4.46,1.85,1.82,1.96,2.66,5.39,2.36,9.68Z"/></g></svg>