<?xml version="1.0" encoding="UTF-8"?><svg id="Layer_2" xmlns="http://www.w3.org/2000/svg" viewBox="0 0 34 34"><defs><style>.cls-1{fill:#6b7280;}</style></defs><g id="Layer_1-2"><path class="cls-1" d="M33.42,20.12l-15.24-10.89c-.47-.34-1.11-.35-1.59-.02L.61,20.07C.24,20.32,0,20.75,0,21.2c0,.45.21.88.57,1.15l15.61,11.38c.24.18.53.27.82.27s.57-.09.82-.27l15.61-11.35c.36-.26.58-.68.57-1.13,0-.45-.22-.87-.58-1.13ZM17,30.88L3.81,21.26l13.53-9.2,12.88,9.2-13.22,9.62Z"/><path class="cls-1" d="M2.18,13.4L17.34,3.09l14.45,10.32c.25.18.53.26.81.26.43,0,.86-.2,1.14-.58.45-.63.3-1.5-.32-1.94L18.17.26c-.47-.34-1.11-.35-1.59-.02L.61,11.09c-.64.43-.8,1.3-.37,1.94.43.64,1.3.8,1.94.37Z"/></g></svg>