<?xml version="1.0" encoding="UTF-8"?><svg id="Layer_2" xmlns="http://www.w3.org/2000/svg" viewBox="0 0 30.43 34"><defs><style>.cls-1{fill:#6b7280;}</style></defs><g id="Layer_1-2"><path class="cls-1" d="M23,19.6c-4.1,0-7.43-3.65-7.43-8.13,0-3.43,4.8-11.47,7.43-11.47,1.9,0,7.43,7.37,7.43,11.47,0,4.48-3.33,8.13-7.43,8.13ZM22.92,1.86c-1.08.56-5.52,6.12-5.52,9.6s2.51,6.3,5.6,6.3,5.6-2.83,5.6-6.3S24.12,2.64,22.92,1.86Z"/><path class="cls-1" d="M9.35,34c-5.16,0-9.35-4.5-9.35-10.02s6.83-14.23,9.35-14.23c1.99,0,9.35,8.9,9.35,14.23s-4.2,10.02-9.35,10.02ZM9.29,11.59c-1.4.47-7.46,7.7-7.46,12.39s3.38,8.19,7.53,8.19,7.52-3.68,7.52-8.19-6.28-11.69-7.59-12.39Z"/></g></svg>