<?xml version="1.0" encoding="UTF-8"?><svg id="Layer_2" xmlns="http://www.w3.org/2000/svg" viewBox="0 0 28.35 28.61"><defs><style>.cls-1{fill:none;}.cls-2{fill:#6c7280;stroke:#6b7280;stroke-miterlimit:10;stroke-width:.5px;}</style></defs><g id="Layer_1-2"><path class="cls-1" d="M8.41,4.01c-1.22-1.23-3.21-1.23-4.43,0-1.22,1.23-1.22,3.24,0,4.47l4.88,4.92,4.43-4.47-4.88-4.92Z"/><path class="cls-1" d="M18.61,14.31l.89-.89,4.88-4.92c1.23-1.24,1.23-3.24,0-4.48-1.22-1.23-3.21-1.23-4.43,0l-4.88,4.92-.89.89-4.43,4.47-.89.89-4.88,4.92c-.59.6-.92,1.39-.92,2.24s.33,1.64.92,2.23c1.22,1.24,3.21,1.24,4.43,0l4.88-4.92.89-.89,4.43-4.47Z"/><path class="cls-1" d="M25.29,22.36c0-.85-.33-1.64-.92-2.24l-4.88-4.92-4.43,4.47,4.88,4.92c1.22,1.23,3.21,1.23,4.43,0,.59-.6.92-1.39.92-2.24Z"/><path class="cls-2" d="M27.48,24.41h-1.45c.33-.63.52-1.32.52-2.05,0-1.18-.46-2.3-1.29-3.13l-4.88-4.92,4.88-4.92c1.39-1.41,1.63-3.51.76-5.18h1.45c.35,0,.63-.28.63-.63s-.28-.63-.63-.63h-1.8c-.13,0-.23-.11-.23-.23V.88c0-.35-.28-.63-.63-.63s-.63.28-.63.63v1.47c-1.66-.88-3.75-.63-5.14.77l-4.87,4.92-4.88-4.92c-1.39-1.4-3.48-1.65-5.13-.77V.88c0-.35-.28-.63-.63-.63-.26,0-.48.16-.58.39-.03.08-.05.16-.05.25v1.82c0,.13-.1.23-.23.23H.88c-.09,0-.17.02-.24.05-.08.03-.14.08-.2.14-.11.11-.18.27-.18.45H.25c0,.35.28.63.63.63h1.45c-.87,1.67-.63,3.78.76,5.18l4.88,4.92-4.88,4.93c-.82.83-1.28,1.94-1.28,3.13,0,.73.19,1.42.52,2.05H.88c-.35,0-.63.28-.63.63s.28.63.63.63h1.8c.13,0,.23.11.23.23v1.82c0,.35.28.63.63.63s.63-.28.63-.63v-1.47c.64.33,1.33.52,2.04.52,1.12,0,2.25-.43,3.1-1.29l4.88-4.92,4.88,4.92c.86.86,1.98,1.3,3.1,1.3.7,0,1.4-.19,2.04-.53v1.47c0,.09.02.17.05.25.03.08.08.14.13.2.11.11.27.19.44.19.35,0,.63-.28.63-.63h0v-1.82c0-.13.1-.23.23-.23h1.8c.17,0,.33-.07.44-.19.06-.06.1-.13.13-.2.03-.08.05-.16.05-.25,0-.35-.28-.63-.63-.63ZM3.98,8.49c-1.22-1.23-1.22-3.24,0-4.47,1.22-1.23,3.21-1.23,4.43,0l4.88,4.92-4.43,4.47-4.88-4.92ZM8.41,24.59c-1.22,1.24-3.21,1.24-4.43,0-.59-.59-.92-1.39-.92-2.23s.33-1.64.92-2.24l4.88-4.92.89-.89,4.43-4.47.89-.89,4.88-4.92c1.22-1.23,3.21-1.23,4.43,0,1.23,1.24,1.23,3.24,0,4.48l-4.88,4.92-.89.89-4.43,4.47-.89.89-4.88,4.92ZM19.94,24.6l-4.88-4.92,4.43-4.47,4.88,4.92c.59.6.92,1.39.92,2.24s-.33,1.64-.92,2.24c-1.22,1.23-3.21,1.23-4.43,0Z"/></g></svg>